<svg width="160" height="15" viewBox="0 0 160 15" fill="none" xmlns="http://www.w3.org/2000/svg">
<path d="M104.776 1.00603V14.7674H103.834V1.00603H104.776ZM109.15 8.29375H104.599V7.44093H109.012C109.98 7.44093 110.726 7.18896 111.249 6.68502C111.785 6.18108 112.053 5.47686 112.053 4.57236C112.053 3.71954 111.765 3.05408 111.19 2.57599C110.627 2.09789 109.83 1.85885 108.797 1.85885H103.834V1.00603H108.738C110.059 1.00603 111.098 1.31614 111.857 1.93637C112.628 2.55661 113.014 3.40942 113.014 4.49483C113.014 5.38641 112.798 6.11648 112.367 6.68502C111.948 7.25357 111.307 7.67352 110.444 7.94487V7.71228C111.412 7.95779 112.131 8.37128 112.602 8.95274C113.086 9.53421 113.328 10.2837 113.328 11.2011C113.328 11.9118 113.151 12.5385 112.798 13.0812C112.445 13.6109 111.948 14.0244 111.307 14.3216C110.68 14.6188 109.941 14.7674 109.091 14.7674H103.834V13.9146H109.15C110.157 13.9146 110.941 13.6626 111.504 13.1587C112.079 12.6547 112.367 11.9634 112.367 11.0848C112.367 10.219 112.079 9.54067 111.504 9.04965C110.941 8.54572 110.157 8.29375 109.15 8.29375Z" fill="url(#paint0_linear_703_908)"/>
<path d="M122.412 5.46394H123.314V14.7674H122.589L122.412 13.0424C122.164 13.6239 121.726 14.0955 121.098 14.4573C120.483 14.8191 119.784 15 118.999 15C117.875 15 117.025 14.6511 116.449 13.9534C115.874 13.2556 115.586 12.3382 115.586 11.2011V5.44456H116.508V10.9685C116.508 12.1573 116.763 12.9907 117.273 13.4688C117.783 13.9469 118.43 14.1859 119.215 14.1859C120.209 14.1859 120.987 13.8629 121.549 13.2168C122.124 12.5578 122.412 11.6275 122.412 10.4258V5.46394Z" fill="url(#paint1_linear_703_908)"/>
<path d="M126.297 14.7674V5.46394H127.199V14.7674H126.297ZM126.748 2.61475C126.526 2.61475 126.329 2.53722 126.159 2.38217C126.002 2.21419 125.924 2.02683 125.924 1.82008C125.924 1.60042 126.002 1.40659 126.159 1.23862C126.329 1.07064 126.526 0.986646 126.748 0.986646C126.97 0.986646 127.16 1.07064 127.317 1.23862C127.487 1.40659 127.572 1.60042 127.572 1.82008C127.572 2.02683 127.487 2.21419 127.317 2.38217C127.16 2.53722 126.97 2.61475 126.748 2.61475Z" fill="url(#paint2_linear_703_908)"/>
<path d="M131.166 14.7674H130.264V0.773441H131.166V14.7674Z" fill="url(#paint3_linear_703_908)"/>
<path d="M137.856 15C136.94 15 136.156 14.7868 135.502 14.3604C134.861 13.9211 134.371 13.3331 134.031 12.5966C133.691 11.8601 133.521 11.0331 133.521 10.1157C133.521 9.19825 133.691 8.37128 134.031 7.63475C134.371 6.89823 134.861 6.31676 135.502 5.89035C136.156 5.45102 136.94 5.23135 137.856 5.23135C138.693 5.23135 139.425 5.41872 140.052 5.79344C140.68 6.15524 141.164 6.71733 141.504 7.47969V0.773441H142.406V14.7674H141.681L141.543 12.6741C141.19 13.4623 140.687 14.0503 140.033 14.4379C139.392 14.8126 138.666 15 137.856 15ZM137.954 14.1859C138.712 14.1859 139.353 14.0115 139.876 13.6626C140.399 13.3137 140.798 12.8357 141.072 12.2283C141.347 11.6081 141.484 10.9039 141.484 10.1157C141.484 9.32747 141.347 8.62971 141.072 8.0224C140.798 7.41509 140.399 6.93699 139.876 6.58811C139.353 6.22631 138.712 6.04541 137.954 6.04541C137.208 6.04541 136.574 6.22631 136.051 6.58811C135.528 6.93699 135.129 7.41509 134.855 8.0224C134.58 8.62971 134.443 9.32747 134.443 10.1157C134.443 10.9039 134.58 11.6081 134.855 12.2283C135.129 12.8357 135.528 13.3137 136.051 13.6626C136.574 14.0115 137.208 14.1859 137.954 14.1859Z" fill="url(#paint4_linear_703_908)"/>
<path d="M149.219 15C148.317 15 147.526 14.7997 146.846 14.3992C146.166 13.9857 145.636 13.4171 145.257 12.6935C144.878 11.957 144.688 11.1042 144.688 10.1351C144.688 9.16595 144.871 8.31313 145.237 7.5766C145.617 6.84008 146.133 6.26507 146.787 5.85159C147.454 5.4381 148.225 5.23135 149.102 5.23135C149.925 5.23135 150.645 5.41226 151.259 5.77406C151.887 6.13586 152.371 6.6398 152.711 7.28587C153.064 7.91902 153.24 8.66201 153.24 9.51483V10.1351H145.198L145.237 9.39853H152.318C152.318 8.39066 152.024 7.58307 151.436 6.97576C150.847 6.35552 150.069 6.04541 149.102 6.04541C148.408 6.04541 147.794 6.20693 147.258 6.52996C146.735 6.853 146.323 7.31171 146.022 7.9061C145.734 8.48757 145.59 9.16595 145.59 9.94124C145.59 11.2721 145.911 12.3123 146.552 13.0618C147.192 13.8112 148.082 14.1859 149.219 14.1859C150.056 14.1859 150.736 14.0115 151.259 13.6626C151.782 13.3008 152.135 12.7775 152.318 12.0927H153.24C152.966 13.0489 152.488 13.7725 151.808 14.2635C151.141 14.7545 150.278 15 149.219 15Z" fill="url(#paint5_linear_703_908)"/>
<path d="M160 5.32827V6.10355H159.294C158.418 6.10355 157.718 6.38783 157.195 6.95637C156.672 7.512 156.41 8.22914 156.41 9.1078V14.7674H155.508V5.46394H156.352L156.45 7.24711H156.352C156.482 6.6398 156.803 6.15524 157.313 5.79344C157.836 5.41872 158.457 5.23135 159.176 5.23135C159.32 5.23135 159.451 5.23782 159.568 5.25074C159.699 5.26366 159.843 5.2895 160 5.32827Z" fill="url(#paint6_linear_703_908)"/>
<path d="M32.267 14.7476C30.856 14.7476 29.6232 14.4445 28.5684 13.8383C27.5136 13.2188 26.6917 12.3622 26.1026 11.2683C25.5136 10.1612 25.2191 8.86967 25.2191 7.39359C25.2191 5.91751 25.5204 4.62594 26.1232 3.51887C26.7259 2.41181 27.5615 1.54857 28.63 0.929141C29.7122 0.309714 30.9588 0 32.3697 0C33.493 0 34.5067 0.204279 35.4108 0.612837C36.3149 1.00822 37.0683 1.56834 37.6711 2.2932C38.2738 3.01806 38.6642 3.86813 38.8423 4.8434H36.6848C36.4108 3.90766 35.8834 3.17621 35.1026 2.64904C34.3218 2.12187 33.3903 1.85828 32.3081 1.85828C31.3081 1.85828 30.4314 2.08892 29.6779 2.5502C28.9382 2.99829 28.3629 3.63749 27.9519 4.46779C27.541 5.2849 27.3355 6.25358 27.3355 7.37382C27.3355 8.48088 27.541 9.44956 27.9519 10.2799C28.3629 11.1102 28.9451 11.7559 29.6985 12.2172C30.4519 12.6653 31.3218 12.8894 32.3081 12.8894C33.404 12.8894 34.3492 12.6324 35.1437 12.1184C35.9519 11.5912 36.493 10.8861 36.767 10.0031H38.904C38.6985 10.952 38.2807 11.7823 37.6505 12.494C37.0341 13.2057 36.2601 13.7592 35.3286 14.1546C34.4108 14.55 33.3903 14.7476 32.267 14.7476Z" fill="url(#paint7_linear_703_908)"/>
<path d="M40.3868 9.68679C40.3868 8.69834 40.6128 7.82192 41.0648 7.05752C41.5169 6.29312 42.1333 5.69346 42.9142 5.25854C43.7087 4.82363 44.6128 4.60617 45.6265 4.60617C46.6402 4.60617 47.5374 4.82363 48.3183 5.25854C49.0991 5.69346 49.7155 6.29312 50.1676 7.05752C50.6196 7.82192 50.8457 8.69834 50.8457 9.68679C50.8457 10.6752 50.6196 11.5517 50.1676 12.3161C49.7155 13.0805 49.0991 13.6801 48.3183 14.115C47.5374 14.55 46.6402 14.7674 45.6265 14.7674C44.6128 14.7674 43.7087 14.55 42.9142 14.115C42.1333 13.6801 41.5169 13.0805 41.0648 12.3161C40.6128 11.5517 40.3868 10.6752 40.3868 9.68679ZM42.3388 9.68679C42.3388 10.3589 42.4758 10.952 42.7498 11.466C43.0374 11.98 43.4279 12.382 43.921 12.6719C44.4142 12.9618 44.9827 13.1068 45.6265 13.1068C46.2703 13.1068 46.8388 12.9618 47.332 12.6719C47.8251 12.382 48.2087 11.98 48.4826 11.466C48.7703 10.952 48.9141 10.3589 48.9141 9.68679C48.9141 9.00147 48.7703 8.4084 48.4826 7.90758C48.2087 7.39359 47.8251 6.99162 47.332 6.70168C46.8388 6.41173 46.2703 6.26676 45.6265 6.26676C44.9827 6.26676 44.4142 6.41173 43.921 6.70168C43.4279 6.99162 43.0374 7.39359 42.7498 7.90758C42.4758 8.4084 42.3388 9.00147 42.3388 9.68679Z" fill="url(#paint8_linear_703_908)"/>
<path d="M54.9153 14.5302H52.9838V4.86316H54.7303L54.9358 6.34584C55.2509 5.7923 55.7029 5.36398 56.292 5.06085C56.8947 4.74455 57.5522 4.5864 58.2646 4.5864C59.5796 4.5864 60.5522 4.94883 61.1824 5.67369C61.8125 6.39855 62.1276 7.38041 62.1276 8.61927V14.5302H60.1961V9.03442C60.1961 8.05915 59.9769 7.36064 59.5385 6.93891C59.1002 6.50399 58.5111 6.28653 57.7714 6.28653C56.8673 6.28653 56.1618 6.56988 55.655 7.13659C55.1618 7.7033 54.9153 8.46112 54.9153 9.41003V14.5302Z" fill="url(#paint9_linear_703_908)"/>
<path d="M63.7343 4.86316H69.611V6.42491H63.7343V4.86316ZM67.6384 14.5302H65.7069V1.83851H67.6384V14.5302Z" fill="url(#paint10_linear_703_908)"/>
<path d="M75.5797 14.7674C74.6071 14.7674 73.7441 14.5565 72.9907 14.1348C72.2372 13.6999 71.6482 13.1068 71.2235 12.3556C70.7989 11.5912 70.5866 10.7082 70.5866 9.70656C70.5866 8.69175 70.792 7.80215 71.203 7.03775C71.6276 6.27335 72.203 5.67369 72.929 5.23877C73.6687 4.80386 74.5249 4.5864 75.4975 4.5864C76.4564 4.5864 77.2852 4.78409 77.9838 5.17947C78.6961 5.57485 79.2441 6.12838 79.6276 6.84006C80.0249 7.55174 80.2235 8.38863 80.2235 9.35072V10.0426L71.6139 10.0624L71.655 8.81696H78.292C78.292 8.01302 78.0386 7.36723 77.5317 6.8796C77.0249 6.39196 76.3468 6.14815 75.4975 6.14815C74.8537 6.14815 74.2989 6.28653 73.8331 6.5633C73.3811 6.82688 73.0318 7.22226 72.7852 7.74943C72.5523 8.26343 72.4359 8.88285 72.4359 9.60772C72.4359 10.7675 72.7098 11.6637 73.2578 12.2963C73.8057 12.9157 74.5934 13.2254 75.6208 13.2254C76.3742 13.2254 76.9906 13.0805 77.4701 12.7905C77.9496 12.5006 78.2715 12.0788 78.4358 11.5253H80.2441C79.9975 12.5533 79.4701 13.3506 78.6619 13.9173C77.8537 14.4841 76.8263 14.7674 75.5797 14.7674Z" fill="url(#paint11_linear_703_908)"/>
<path d="M84.3124 14.5302H82.3809V4.86316H84.1275L84.3329 6.34584C84.648 5.7923 85.1001 5.36398 85.6891 5.06085C86.2918 4.74455 86.9494 4.5864 87.6617 4.5864C88.9768 4.5864 89.9494 4.94883 90.5795 5.67369C91.2096 6.39855 91.5247 7.38041 91.5247 8.61927V14.5302H89.5932V9.03442C89.5932 8.05915 89.374 7.36064 88.9357 6.93891C88.4973 6.50399 87.9083 6.28653 87.1685 6.28653C86.2644 6.28653 85.559 6.56988 85.0521 7.13659C84.559 7.7033 84.3124 8.46112 84.3124 9.41003V14.5302Z" fill="url(#paint12_linear_703_908)"/>
<path d="M93.1314 4.86316H99.0081V6.42491H93.1314V4.86316ZM97.0355 14.5302H95.104V1.83851H97.0355V14.5302Z" fill="url(#paint13_linear_703_908)"/>
<path d="M10.7296 10.2405C10.0925 10.912 9.21135 11.2477 8.08622 11.2477C7.32711 11.2477 6.72388 11.0951 6.27654 10.7899C5.82921 10.4725 5.60554 10.0207 5.60554 9.43474C5.60554 8.86094 5.83598 8.39091 6.29687 8.02465C6.75777 7.64619 7.46266 7.42033 8.41156 7.34708L11.6853 7.10902V7.58515C11.6853 8.68391 11.3667 9.56903 10.7296 10.2405Z" fill="url(#paint14_linear_703_908)"/>
<path fill-rule="evenodd" clip-rule="evenodd" d="M4.6702 0C2.09092 0 0 2.06612 0 4.61482V10.1526C0 12.7013 2.09092 14.7674 4.6702 14.7674H16.8127C19.392 14.7674 21.4829 12.7013 21.4829 10.1526V4.61482C21.4829 2.06612 19.392 0 16.8127 0H4.6702ZM5.54454 11.3026C6.12743 11.7666 6.934 11.9985 7.96422 11.9985C8.80467 11.9985 9.55024 11.8398 10.2009 11.5224C10.8516 11.1928 11.3464 10.7288 11.6853 10.1306L11.8683 11.7788H12.6206V5.95531C12.6206 4.88096 12.2749 4.08131 11.5836 3.55634C10.8923 3.03137 9.98402 2.76889 8.8589 2.76889C7.70667 2.76889 6.7781 3.02527 6.07321 3.53803C5.36832 4.05078 5.01586 4.73446 5.01586 5.58905H5.95121C5.95121 4.942 6.20199 4.44145 6.70355 4.08741C7.21866 3.72115 7.93034 3.53803 8.83857 3.53803C10.7364 3.53803 11.6853 4.38652 11.6853 6.0835V6.41313L8.33023 6.6512C7.19155 6.73666 6.29687 7.02355 5.64621 7.5119C4.99553 8.00024 4.6702 8.64729 4.6702 9.45305C4.6702 10.2222 4.96164 10.8387 5.54454 11.3026ZM14.0093 2.98864V11.7788H14.9446V2.98864H14.0093Z" fill="url(#paint15_linear_703_908)"/>
<defs>
<linearGradient id="paint0_linear_703_908" x1="15.0851" y1="7.3837" x2="163.13" y2="7.3837" gradientUnits="userSpaceOnUse">
<stop offset="0.0523968" stop-color="#3312BB"/>
<stop offset="0.0527003" stop-color="#111827"/>
</linearGradient>
<linearGradient id="paint1_linear_703_908" x1="15.0851" y1="7.3837" x2="163.13" y2="7.3837" gradientUnits="userSpaceOnUse">
<stop offset="0.0523968" stop-color="#3312BB"/>
<stop offset="0.0527003" stop-color="#111827"/>
</linearGradient>
<linearGradient id="paint2_linear_703_908" x1="15.0851" y1="7.3837" x2="163.13" y2="7.3837" gradientUnits="userSpaceOnUse">
<stop offset="0.0523968" stop-color="#3312BB"/>
<stop offset="0.0527003" stop-color="#111827"/>
</linearGradient>
<linearGradient id="paint3_linear_703_908" x1="15.0851" y1="7.3837" x2="163.13" y2="7.3837" gradientUnits="userSpaceOnUse">
<stop offset="0.0523968" stop-color="#3312BB"/>
<stop offset="0.0527003" stop-color="#111827"/>
</linearGradient>
<linearGradient id="paint4_linear_703_908" x1="15.0851" y1="7.3837" x2="163.13" y2="7.3837" gradientUnits="userSpaceOnUse">
<stop offset="0.0523968" stop-color="#3312BB"/>
<stop offset="0.0527003" stop-color="#111827"/>
</linearGradient>
<linearGradient id="paint5_linear_703_908" x1="15.0851" y1="7.3837" x2="163.13" y2="7.3837" gradientUnits="userSpaceOnUse">
<stop offset="0.0523968" stop-color="#3312BB"/>
<stop offset="0.0527003" stop-color="#111827"/>
</linearGradient>
<linearGradient id="paint6_linear_703_908" x1="15.0851" y1="7.3837" x2="163.13" y2="7.3837" gradientUnits="userSpaceOnUse">
<stop offset="0.0523968" stop-color="#3312BB"/>
<stop offset="0.0527003" stop-color="#111827"/>
</linearGradient>
<linearGradient id="paint7_linear_703_908" x1="15.0851" y1="7.3837" x2="163.13" y2="7.3837" gradientUnits="userSpaceOnUse">
<stop offset="0.0523968" stop-color="#3312BB"/>
<stop offset="0.0527003" stop-color="#111827"/>
</linearGradient>
<linearGradient id="paint8_linear_703_908" x1="15.0851" y1="7.3837" x2="163.13" y2="7.3837" gradientUnits="userSpaceOnUse">
<stop offset="0.0523968" stop-color="#3312BB"/>
<stop offset="0.0527003" stop-color="#111827"/>
</linearGradient>
<linearGradient id="paint9_linear_703_908" x1="15.0851" y1="7.3837" x2="163.13" y2="7.3837" gradientUnits="userSpaceOnUse">
<stop offset="0.0523968" stop-color="#3312BB"/>
<stop offset="0.0527003" stop-color="#111827"/>
</linearGradient>
<linearGradient id="paint10_linear_703_908" x1="15.0851" y1="7.3837" x2="163.13" y2="7.3837" gradientUnits="userSpaceOnUse">
<stop offset="0.0523968" stop-color="#3312BB"/>
<stop offset="0.0527003" stop-color="#111827"/>
</linearGradient>
<linearGradient id="paint11_linear_703_908" x1="15.0851" y1="7.3837" x2="163.13" y2="7.3837" gradientUnits="userSpaceOnUse">
<stop offset="0.0523968" stop-color="#3312BB"/>
<stop offset="0.0527003" stop-color="#111827"/>
</linearGradient>
<linearGradient id="paint12_linear_703_908" x1="15.0851" y1="7.3837" x2="163.13" y2="7.3837" gradientUnits="userSpaceOnUse">
<stop offset="0.0523968" stop-color="#3312BB"/>
<stop offset="0.0527003" stop-color="#111827"/>
</linearGradient>
<linearGradient id="paint13_linear_703_908" x1="15.0851" y1="7.3837" x2="163.13" y2="7.3837" gradientUnits="userSpaceOnUse">
<stop offset="0.0523968" stop-color="#3312BB"/>
<stop offset="0.0527003" stop-color="#111827"/>
</linearGradient>
<linearGradient id="paint14_linear_703_908" x1="15.0851" y1="7.3837" x2="163.13" y2="7.3837" gradientUnits="userSpaceOnUse">
<stop offset="0.0523968" stop-color="#3312BB"/>
<stop offset="0.0527003" stop-color="#111827"/>
</linearGradient>
<linearGradient id="paint15_linear_703_908" x1="15.0851" y1="7.3837" x2="163.13" y2="7.3837" gradientUnits="userSpaceOnUse">
<stop offset="0.0523968" stop-color="#3312BB"/>
<stop offset="0.0527003" stop-color="#111827"/>
</linearGradient>
</defs>
</svg>
